<?xml version="1.0" standalone="no"?>
<!DOCTYPE svg PUBLIC "-//W3C//DTD SVG 20010904//EN"
 "http://www.w3.org/TR/2001/REC-SVG-20010904/DTD/svg10.dtd">
<svg version="1.0" xmlns="http://www.w3.org/2000/svg"
 width="500.000000pt" height="500.000000pt" viewBox="0 0 500.000000 500.000000"
 preserveAspectRatio="xMidYMid meet">
<metadata>
Created by potrace 1.14, written by Peter Selinger 2001-2017
</metadata>
<g transform="translate(0.000000,500.000000) scale(0.100000,-0.100000)"
fill="#000000" stroke="none">
<path d="M2470 4433 c-24 -30 -21 -79 4 -98 12 -9 12 -30 0 -140 -7 -72 -14
-138 -14 -147 0 -15 -9 -18 -55 -18 -61 0 -80 -19 -73 -71 3 -16 2 -30 -1 -30
-3 -1 -15 -3 -26 -4 -106 -16 -269 -77 -372 -141 -213 -132 -357 -423 -388
-784 -4 -41 -8 -85 -10 -97 -2 -15 27 -60 97 -150 55 -70 102 -130 105 -133 3
-3 365 -5 805 -6 l800 0 105 133 105 134 -6 72 c-30 322 -129 590 -273 734
-117 116 -242 176 -495 237 -24 5 -27 11 -30 54 l-3 47 -62 3 -62 3 -10 52
c-39 194 -41 227 -21 264 15 28 16 41 8 64 -19 56 -92 68 -128 22z"/>
<path d="M4168 2969 c-104 -35 -344 -162 -626 -332 -128 -76 -132 -80 -119
-101 19 -28 215 -361 241 -408 12 -21 24 -38 27 -38 26 0 284 252 398 389 195
236 271 481 157 503 -14 3 -49 -3 -78 -13z"/>
<path d="M733 2645 c-73 -53 39 -216 237 -347 152 -101 422 -230 441 -211 13
14 289 466 286 470 -3 3 -240 40 -307 48 -19 2 -51 6 -70 9 -38 5 -79 10 -210
26 -47 6 -146 13 -220 16 -115 5 -138 3 -157 -11z"/>
<path d="M1669 2398 c-52 -90 -98 -170 -104 -180 -5 -9 -17 -29 -26 -45 -9
-15 -33 -57 -53 -92 -33 -57 -36 -70 -32 -113 16 -138 43 -259 86 -383 38
-109 134 -310 185 -385 l36 -55 177 -68 c216 -82 220 -84 324 -91 45 -4 110
-11 143 -15 61 -9 245 -7 300 3 17 2 64 7 105 11 41 3 86 7 100 9 23 2 118 35
165 55 11 5 71 29 133 53 l113 43 45 70 c133 206 241 517 260 750 l5 60 -130
224 c-72 123 -131 226 -131 228 0 2 -12 21 -26 43 l-27 40 -777 0 -777 0 -94
-162z"/>
<path d="M3156 1031 c-94 -37 -171 -72 -173 -78 -4 -12 121 -143 137 -143 5 0
10 -4 10 -9 0 -6 -8 -8 -19 -6 -79 15 -630 23 -751 11 -30 -3 -90 -8 -132 -11
-42 -3 -87 -8 -99 -10 -18 -4 -20 -1 -15 18 42 148 40 152 -74 193 -222 80
-271 96 -274 93 -8 -8 106 -227 144 -277 26 -34 36 -54 28 -57 -98 -30 -121
-39 -140 -55 -29 -24 -17 -47 34 -72 36 -17 190 -51 281 -62 26 -3 66 -8 90
-11 127 -15 679 -22 812 -10 155 13 187 17 203 20 9 1 42 6 72 10 75 10 174
33 220 51 45 18 59 47 36 73 -15 17 -103 51 -130 51 -7 0 -11 26 -12 73 -1 68
-19 139 -65 244 l-14 31 -169 -67z"/>
</g>
</svg>
